<?xml version="1.0" standalone="no"?>
<!DOCTYPE svg PUBLIC "-//W3C//DTD SVG 20010904//EN"
 "http://www.w3.org/TR/2001/REC-SVG-20010904/DTD/svg10.dtd">
<svg version="1.0" xmlns="http://www.w3.org/2000/svg"
 width="700.000000pt" height="700.000000pt" viewBox="0 0 700.000000 700.000000"
 preserveAspectRatio="xMidYMid meet">
<metadata>
Created by potrace 1.11, written by Peter Selinger 2001-2013
</metadata>
<g transform="translate(0.000000,700.000000) scale(0.100000,-0.100000)"
fill="#000000" stroke="none">
<path d="M3127 6444 c-1 -2 -29 -5 -62 -9 -809 -90 -1558 -522 -2046 -1181
-199 -268 -364 -597 -458 -914 -17 -58 -33 -115 -36 -127 -3 -13 -7 -31 -9
-40 -14 -59 -37 -176 -42 -214 -3 -24 -7 -55 -10 -69 -2 -14 -6 -50 -9 -80 -3
-30 -7 -77 -10 -105 -6 -62 -6 -342 0 -410 17 -178 20 -207 42 -325 53 -293
148 -568 289 -838 372 -708 1026 -1244 1791 -1466 108 -31 177 -49 243 -61 85
-16 204 -35 260 -40 36 -3 83 -8 105 -10 53 -6 379 -6 430 0 22 2 67 7 100 10
81 8 223 31 315 50 41 9 85 18 97 21 66 13 367 120 474 168 698 316 1249 884
1534 1585 64 157 125 355 151 486 2 11 6 31 9 45 20 92 34 186 41 280 4 41 8
76 9 78 1 2 95 3 209 4 113 0 206 3 206 7 0 3 -19 27 -43 52 -23 25 -55 62
-72 81 -16 19 -59 68 -95 109 -128 145 -156 176 -215 244 -33 39 -78 90 -101
115 -69 77 -101 113 -223 253 l-76 88 -40 -44 c-58 -64 -165 -184 -220 -247
-26 -30 -61 -70 -77 -88 -17 -19 -60 -68 -96 -110 -37 -43 -69 -79 -72 -82 -3
-3 -37 -41 -75 -85 -39 -44 -72 -82 -75 -85 -3 -3 -36 -41 -75 -85 -38 -44
-78 -90 -89 -102 l-19 -23 139 1 c288 1 273 2 269 -23 -2 -13 -6 -41 -9 -63
-3 -22 -10 -65 -16 -95 -6 -30 -13 -66 -16 -80 -11 -58 -58 -210 -91 -294
-197 -502 -580 -910 -1071 -1143 -175 -83 -416 -156 -582 -177 -25 -3 -70 -9
-100 -13 -108 -13 -430 -7 -530 11 -14 3 -54 10 -90 16 -217 37 -477 137 -690
265 -63 38 -117 71 -120 74 -3 4 -39 32 -80 63 -41 31 -91 70 -110 88 -19 18
-51 47 -70 65 -114 105 -248 274 -347 439 -159 263 -258 564 -290 876 -13 136
-7 424 12 520 2 13 7 40 10 60 22 145 95 375 169 534 53 113 152 276 236 387
116 153 380 398 525 486 142 86 328 183 351 183 3 0 20 6 37 14 115 52 299 98
527 131 14 2 81 7 150 10 163 8 177 10 226 28 144 53 264 198 284 345 24 181
-102 373 -290 442 -47 17 -76 20 -223 18 -92 -1 -169 -3 -170 -4z"/>
<path d="M3763 4631 l-1355 -1354 384 -384 c210 -210 387 -382 391 -380 4 1
615 610 1357 1352 l1350 1349 1 351 c0 192 2 363 3 379 1 15 -3 30 -9 32 -6 3
-181 6 -389 7 l-379 3 -1354 -1355z"/>
<path d="M3207 4414 c-1 -1 -29 -5 -62 -8 -33 -4 -67 -9 -75 -11 -15 -4 -53
-10 -127 -20 -21 -3 -66 -10 -100 -15 -35 -6 -91 -14 -125 -20 -35 -5 -81 -12
-103 -15 -22 -3 -83 -13 -135 -21 -52 -8 -156 -23 -230 -34 -146 -22 -182 -28
-220 -35 -14 -3 -45 -7 -69 -10 -45 -5 -89 -12 -131 -20 -14 -3 -45 -8 -70
-11 -52 -7 -56 -8 -130 -19 -30 -4 -64 -9 -75 -11 -11 -1 -22 -3 -24 -3 -2 -1
32 -36 77 -78 154 -149 566 -548 614 -596 l48 -48 490 490 c322 321 483 489
470 488 -12 -1 -22 -2 -23 -3z"/>
<path d="M4225 3304 c-80 -82 -826 -842 -872 -888 l-42 -43 363 -368 364 -369
7 54 c4 30 9 62 10 70 1 8 6 40 10 70 4 30 9 64 11 75 2 11 7 45 10 75 3 30 7
62 9 70 2 8 7 38 11 65 3 28 8 58 10 69 2 10 6 44 10 75 3 31 7 63 9 71 3 17
12 77 20 133 3 20 32 227 65 459 33 232 59 424 58 427 -2 4 -25 -17 -53 -45z"/>
</g>
</svg>
