<?xml version="1.0" standalone="no"?>
<!DOCTYPE svg PUBLIC "-//W3C//DTD SVG 20010904//EN"
 "http://www.w3.org/TR/2001/REC-SVG-20010904/DTD/svg10.dtd">
<svg version="1.0" xmlns="http://www.w3.org/2000/svg"
 width="700.000000pt" height="700.000000pt" viewBox="0 0 700.000000 700.000000"
 preserveAspectRatio="xMidYMid meet">
<metadata>
Created by potrace 1.11, written by Peter Selinger 2001-2013
</metadata>
<g transform="translate(0.000000,700.000000) scale(0.100000,-0.100000)"
fill="#000000" stroke="none">
<path d="M3137 6444 c-1 -1 -31 -5 -67 -9 -93 -9 -275 -40 -345 -58 -11 -3
-33 -8 -50 -12 -58 -14 -210 -58 -225 -65 -8 -4 -55 -22 -105 -40 -264 -95
-558 -262 -805 -459 -86 -69 -317 -291 -381 -366 -295 -350 -495 -723 -614
-1145 -30 -110 -72 -312 -80 -385 -5 -58 -16 -166 -21 -210 -6 -57 -6 -332 0
-385 2 -19 7 -69 11 -110 10 -121 19 -174 61 -377 11 -57 77 -271 109 -360 35
-93 181 -399 227 -473 138 -223 269 -390 438 -560 155 -156 168 -168 310 -276
351 -268 737 -447 1161 -538 147 -32 151 -33 266 -46 54 -6 116 -13 138 -15
49 -6 385 -6 440 0 22 2 68 7 103 10 35 4 71 8 81 10 10 2 42 6 72 10 284 36
703 182 981 343 310 179 584 407 805 667 49 58 186 241 210 280 96 158 131
220 186 330 36 72 68 141 72 155 4 14 16 43 25 65 50 111 124 371 153 535 16
85 31 186 32 205 0 19 31 21 253 21 122 -1 222 2 222 6 0 3 -6 13 -13 20 -7 7
-57 67 -112 133 -55 66 -108 129 -117 140 -9 11 -67 81 -129 155 -160 194
-250 301 -259 310 -3 3 -23 28 -44 55 -22 28 -47 57 -55 66 -9 9 -47 54 -85
101 l-69 85 -81 -96 c-45 -53 -180 -215 -301 -361 -121 -146 -222 -267 -225
-270 -3 -3 -25 -30 -50 -60 -25 -30 -47 -57 -50 -60 -3 -3 -26 -31 -52 -62
-27 -32 -68 -82 -92 -111 l-44 -52 230 0 230 0 -7 -50 c-22 -174 -118 -451
-221 -642 -306 -566 -890 -985 -1504 -1079 -19 -3 -40 -7 -47 -9 -27 -9 -195
-19 -313 -19 -156 0 -282 11 -391 33 -30 6 -63 13 -74 15 -11 2 -47 11 -80 20
-33 9 -67 18 -75 20 -112 28 -368 146 -496 229 -145 93 -162 106 -266 195
-217 186 -380 397 -514 663 -77 152 -152 368 -177 509 -34 187 -41 259 -41
425 0 121 11 302 19 314 1 4 6 27 9 54 11 79 61 266 101 372 109 293 270 541
495 765 236 236 499 399 813 504 124 42 288 83 367 91 19 2 49 6 65 9 17 3 89
8 160 11 204 8 294 40 387 137 132 138 151 346 46 509 -36 57 -98 114 -154
142 -80 41 -116 47 -282 45 -89 -1 -163 -3 -165 -4z"/>
<path d="M6087 6204 c-1 -1 -40 -5 -87 -9 -47 -4 -87 -8 -90 -10 -3 -1 -39 -6
-80 -9 -41 -4 -91 -9 -110 -11 -19 -2 -128 -14 -242 -26 -115 -13 -208 -26
-208 -30 0 -4 114 -124 254 -266 140 -142 308 -314 375 -381 67 -68 121 -120
122 -115 0 4 2 17 4 28 3 11 7 40 10 65 3 25 7 61 10 80 3 19 7 55 10 80 3 25
8 61 10 80 3 19 7 55 10 80 3 25 8 63 11 85 3 22 7 56 9 75 12 102 17 140 25
195 14 86 13 94 -10 92 -12 -1 -22 -2 -23 -3z"/>
<path d="M3757 4627 l-1349 -1350 384 -384 c210 -210 387 -382 391 -380 13 4
2697 2691 2697 2699 0 11 -758 768 -768 767 -4 -1 -614 -609 -1355 -1352z"/>
<path d="M3207 4414 c-1 -1 -29 -5 -62 -8 -33 -4 -67 -9 -75 -11 -15 -4 -53
-10 -127 -20 -21 -3 -66 -10 -100 -15 -35 -6 -91 -14 -125 -20 -35 -5 -81 -12
-103 -15 -22 -3 -83 -13 -135 -21 -52 -8 -156 -23 -230 -34 -146 -22 -182 -28
-220 -35 -14 -3 -45 -7 -69 -10 -45 -5 -89 -12 -131 -20 -14 -3 -45 -8 -70
-11 -52 -7 -56 -8 -130 -19 -30 -4 -64 -9 -75 -11 -11 -1 -22 -3 -24 -3 -2 -1
32 -36 77 -78 154 -149 566 -548 614 -596 l48 -48 490 490 c322 321 483 489
470 488 -12 -1 -22 -2 -23 -3z"/>
<path d="M4225 3304 c-80 -82 -826 -842 -872 -888 l-42 -43 363 -368 363 -369
7 50 c4 27 10 65 12 84 3 19 7 46 10 60 2 14 7 48 9 75 3 28 10 77 15 110 5
33 12 78 15 100 4 22 8 51 10 65 3 14 7 50 11 80 3 30 7 62 9 70 3 17 12 77
20 133 3 20 32 227 65 459 33 232 59 424 58 427 -2 4 -25 -17 -53 -45z"/>
</g>
</svg>
