<?xml version="1.0" encoding="UTF-8" standalone="no"?>
<svg viewBox="0 0 64 64" version="1.1" height="64" width="64" xmlns="http://www.w3.org/2000/svg">
  <g>
    <path
       d="M 31,5 C 16.133528,5.0000001 4.0000001,17.133528 4,32 4,46.866472 16.133528,59 31,59 45.866472,59 57.999998,46.866471 58,32 a 3.8178623,3.8178623 0 1 0 -7.634766,0 C 50.365233,42.740233 41.740232,51.365234 31,51.365234 20.259768,51.365234 11.634766,42.740232 11.634766,32 11.634766,21.259768 20.259768,12.634766 31,12.634766 A 3.8178623,3.8178623 0 1 0 31,5 Z"
       style="fill-opacity:1;fill-rule:nonzero;stroke:none;" />
    <path
       d="M 54.15,25.309 46.5,34 61.8,34 Z"
       style="fill-rule:evenodd;stroke:none;" />
    <path
       d="m 39.632481,-26.505089 5.050209,-5.00414 4.949791,5.00414 0,17.5000001 0,17.5000001 -10,0 z"
       style="fill-opacity:1;stroke:none;"
       transform="matrix(0.70710678,0.70710678,-0.70710678,0.70710678,0,0)" />
    <path
       d="m 20.758751,32.541804 -6.78247,-6.574425 15.759697,-2.397352 z"
       style="fill-opacity:1;stroke:none;" />
    <path
       d="m 30.273531,42.312237 6.638324,6.719941 2.248085,-15.781681 z"
       style="fill-opacity:1;stroke:none;" />
  </g>
</svg>
